<svg width="800" height="450" xmlns="http://www.w3.org/2000/svg" style="background:#1a1a2e">
  <defs>
    <linearGradient id="xcdbg" x1="0" y1="0" x2="0" y2="1">
      <stop offset="0%" stop-color="#2a2a4e"/>
      <stop offset="100%" stop-color="#1e1e3a"/>
    </linearGradient>
    <linearGradient id="orangegrad" x1="0" y1="0" x2="1" y2="0">
      <stop offset="0%" stop-color="#ff8c00"/>
      <stop offset="100%" stop-color="#ffa500"/>
    </linearGradient>
    <linearGradient id="purplegrad" x1="0" y1="0" x2="1" y2="0">
      <stop offset="0%" stop-color="#8b00ff"/>
      <stop offset="100%" stop-color="#a855f7"/>
    </linearGradient>
    <filter id="glow">
      <feGaussianBlur stdDeviation="2" result="blur"/>
      <feMerge><feMergeNode in="blur"/><feMergeNode in="SourceGraphic"/></feMerge>
    </filter>
  </defs>

  <!-- ── SECTION LABELS ── -->
  <text x="12" y="18" fill="#7070aa" font-family="monospace" font-size="9" font-weight="bold">MI300X · 304 CUs across 8 XCDs</text>
  <text x="12" y="172" fill="#7070aa" font-family="monospace" font-size="9" font-weight="bold">Phase-sorted dispatch  (replaces 35-case switch)</text>
  <text x="12" y="310" fill="#7070aa" font-family="monospace" font-size="9" font-weight="bold">Work-stealing pattern</text>

  <!-- ═══════════════════════════════════════════════════ TOP — XCDs ══ -->
  <rect x="8" y="24" width="784" height="132" rx="6" fill="url(#xcdbg)" stroke="#3a3a6e" stroke-width="1"/>

  <!-- 8 XCD boxes -->
  <!-- XCD 0 -->
  <rect x="16" y="32" width="92" height="80" rx="4" fill="#1a1a3e" stroke="#5050a0" stroke-width="1"/>
  <text x="62" y="47" fill="#8888cc" font-family="monospace" font-size="8" text-anchor="middle" font-weight="bold">XCD 0</text>
  <text x="62" y="61" fill="#aaaadd" font-family="monospace" font-size="7" text-anchor="middle">38 CUs</text>
  <!-- CU mini-grid -->
  <g fill="#4444aa" opacity="0.8">
    <rect x="22" y="66" width="7" height="7" rx="1"/><rect x="31" y="66" width="7" height="7" rx="1"/><rect x="40" y="66" width="7" height="7" rx="1"/><rect x="49" y="66" width="7" height="7" rx="1"/><rect x="58" y="66" width="7" height="7" rx="1"/>
    <rect x="22" y="75" width="7" height="7" rx="1"/><rect x="31" y="75" width="7" height="7" rx="1"/><rect x="40" y="75" width="7" height="7" rx="1"/><rect x="49" y="75" width="7" height="7" rx="1"/><rect x="58" y="75" width="7" height="7" rx="1"/>
    <rect x="22" y="84" width="7" height="7" rx="1"/><rect x="31" y="84" width="7" height="7" rx="1"/><rect x="40" y="84" width="7" height="7" rx="1"/><rect x="49" y="84" width="7" height="7" rx="1"/><rect x="58" y="84" width="7" height="7" rx="1"/>
    <rect x="22" y="93" width="7" height="7" rx="1"/><rect x="31" y="93" width="7" height="7" rx="1"/><rect x="40" y="93" width="7" height="7" rx="1"/><rect x="49" y="93" width="7" height="7" rx="1"/><rect x="58" y="93" width="7" height="7" rx="1"/>
    <rect x="67" y="66" width="7" height="7" rx="1"/><rect x="76" y="66" width="7" height="7" rx="1"/><rect x="67" y="75" width="7" height="7" rx="1"/><rect x="76" y="75" width="7" height="7" rx="1"/>
    <rect x="67" y="84" width="7" height="7" rx="1"/><rect x="76" y="84" width="7" height="7" rx="1"/><rect x="67" y="93" width="7" height="7" rx="1"/><rect x="76" y="93" width="7" height="7" rx="1"/>
    <rect x="85" y="66" width="7" height="7" rx="1"/><rect x="94" y="66" width="7" height="7" rx="1"/><rect x="85" y="75" width="7" height="7" rx="1"/><rect x="94" y="75" width="7" height="7" rx="1"/>
    <rect x="85" y="84" width="7" height="7" rx="1"/><rect x="94" y="84" width="7" height="7" rx="1"/>
  </g>

  <!-- XCD 1 -->
  <rect x="114" y="32" width="92" height="80" rx="4" fill="#1a1a3e" stroke="#5050a0" stroke-width="1"/>
  <text x="160" y="47" fill="#8888cc" font-family="monospace" font-size="8" text-anchor="middle" font-weight="bold">XCD 1</text>
  <text x="160" y="61" fill="#aaaadd" font-family="monospace" font-size="7" text-anchor="middle">38 CUs</text>
  <g fill="#4444aa" opacity="0.8">
    <rect x="120" y="66" width="7" height="7" rx="1"/><rect x="129" y="66" width="7" height="7" rx="1"/><rect x="138" y="66" width="7" height="7" rx="1"/><rect x="147" y="66" width="7" height="7" rx="1"/><rect x="156" y="66" width="7" height="7" rx="1"/>
    <rect x="120" y="75" width="7" height="7" rx="1"/><rect x="129" y="75" width="7" height="7" rx="1"/><rect x="138" y="75" width="7" height="7" rx="1"/><rect x="147" y="75" width="7" height="7" rx="1"/><rect x="156" y="75" width="7" height="7" rx="1"/>
    <rect x="120" y="84" width="7" height="7" rx="1"/><rect x="129" y="84" width="7" height="7" rx="1"/><rect x="138" y="84" width="7" height="7" rx="1"/><rect x="147" y="84" width="7" height="7" rx="1"/><rect x="156" y="84" width="7" height="7" rx="1"/>
    <rect x="120" y="93" width="7" height="7" rx="1"/><rect x="129" y="93" width="7" height="7" rx="1"/><rect x="138" y="93" width="7" height="7" rx="1"/><rect x="147" y="93" width="7" height="7" rx="1"/><rect x="156" y="93" width="7" height="7" rx="1"/>
    <rect x="165" y="66" width="7" height="7" rx="1"/><rect x="174" y="66" width="7" height="7" rx="1"/><rect x="165" y="75" width="7" height="7" rx="1"/><rect x="174" y="75" width="7" height="7" rx="1"/>
    <rect x="165" y="84" width="7" height="7" rx="1"/><rect x="174" y="84" width="7" height="7" rx="1"/><rect x="165" y="93" width="7" height="7" rx="1"/>
    <rect x="174" y="93" width="7" height="7" rx="1"/>
    <rect x="183" y="66" width="7" height="7" rx="1"/><rect x="192" y="66" width="7" height="7" rx="1"/>
    <rect x="183" y="75" width="7" height="7" rx="1"/><rect x="192" y="75" width="7" height="7" rx="1"/>
    <rect x="183" y="84" width="7" height="7" rx="1"/>
  </g>

  <!-- XCD 2 -->
  <rect x="212" y="32" width="92" height="80" rx="4" fill="#1a1a3e" stroke="#5050a0" stroke-width="1"/>
  <text x="258" y="47" fill="#8888cc" font-family="monospace" font-size="8" text-anchor="middle" font-weight="bold">XCD 2</text>
  <text x="258" y="61" fill="#aaaadd" font-family="monospace" font-size="7" text-anchor="middle">38 CUs</text>
  <g fill="#4444aa" opacity="0.8">
    <rect x="218" y="66" width="7" height="7" rx="1"/><rect x="227" y="66" width="7" height="7" rx="1"/><rect x="236" y="66" width="7" height="7" rx="1"/><rect x="245" y="66" width="7" height="7" rx="1"/><rect x="254" y="66" width="7" height="7" rx="1"/>
    <rect x="218" y="75" width="7" height="7" rx="1"/><rect x="227" y="75" width="7" height="7" rx="1"/><rect x="236" y="75" width="7" height="7" rx="1"/><rect x="245" y="75" width="7" height="7" rx="1"/><rect x="254" y="75" width="7" height="7" rx="1"/>
    <rect x="218" y="84" width="7" height="7" rx="1"/><rect x="227" y="84" width="7" height="7" rx="1"/><rect x="236" y="84" width="7" height="7" rx="1"/><rect x="245" y="84" width="7" height="7" rx="1"/><rect x="254" y="84" width="7" height="7" rx="1"/>
    <rect x="218" y="93" width="7" height="7" rx="1"/><rect x="227" y="93" width="7" height="7" rx="1"/><rect x="236" y="93" width="7" height="7" rx="1"/><rect x="245" y="93" width="7" height="7" rx="1"/><rect x="254" y="93" width="7" height="7" rx="1"/>
    <rect x="263" y="66" width="7" height="7" rx="1"/><rect x="272" y="66" width="7" height="7" rx="1"/><rect x="263" y="75" width="7" height="7" rx="1"/><rect x="272" y="75" width="7" height="7" rx="1"/>
    <rect x="263" y="84" width="7" height="7" rx="1"/><rect x="272" y="84" width="7" height="7" rx="1"/><rect x="263" y="93" width="7" height="7" rx="1"/>
    <rect x="281" y="66" width="7" height="7" rx="1"/><rect x="290" y="66" width="7" height="7" rx="1"/>
    <rect x="281" y="75" width="7" height="7" rx="1"/><rect x="290" y="75" width="7" height="7" rx="1"/>
    <rect x="281" y="84" width="7" height="7" rx="1"/>
  </g>

  <!-- XCD 3 -->
  <rect x="310" y="32" width="92" height="80" rx="4" fill="#1a1a3e" stroke="#5050a0" stroke-width="1"/>
  <text x="356" y="47" fill="#8888cc" font-family="monospace" font-size="8" text-anchor="middle" font-weight="bold">XCD 3</text>
  <text x="356" y="61" fill="#aaaadd" font-family="monospace" font-size="7" text-anchor="middle">38 CUs</text>
  <g fill="#4444aa" opacity="0.8">
    <rect x="316" y="66" width="7" height="7" rx="1"/><rect x="325" y="66" width="7" height="7" rx="1"/><rect x="334" y="66" width="7" height="7" rx="1"/><rect x="343" y="66" width="7" height="7" rx="1"/><rect x="352" y="66" width="7" height="7" rx="1"/>
    <rect x="316" y="75" width="7" height="7" rx="1"/><rect x="325" y="75" width="7" height="7" rx="1"/><rect x="334" y="75" width="7" height="7" rx="1"/><rect x="343" y="75" width="7" height="7" rx="1"/><rect x="352" y="75" width="7" height="7" rx="1"/>
    <rect x="316" y="84" width="7" height="7" rx="1"/><rect x="325" y="84" width="7" height="7" rx="1"/><rect x="334" y="84" width="7" height="7" rx="1"/><rect x="343" y="84" width="7" height="7" rx="1"/><rect x="352" y="84" width="7" height="7" rx="1"/>
    <rect x="316" y="93" width="7" height="7" rx="1"/><rect x="325" y="93" width="7" height="7" rx="1"/><rect x="334" y="93" width="7" height="7" rx="1"/><rect x="343" y="93" width="7" height="7" rx="1"/><rect x="352" y="93" width="7" height="7" rx="1"/>
    <rect x="361" y="66" width="7" height="7" rx="1"/><rect x="370" y="66" width="7" height="7" rx="1"/><rect x="361" y="75" width="7" height="7" rx="1"/><rect x="370" y="75" width="7" height="7" rx="1"/>
    <rect x="361" y="84" width="7" height="7" rx="1"/><rect x="370" y="84" width="7" height="7" rx="1"/><rect x="361" y="93" width="7" height="7" rx="1"/>
    <rect x="379" y="66" width="7" height="7" rx="1"/><rect x="388" y="66" width="7" height="7" rx="1"/>
    <rect x="379" y="75" width="7" height="7" rx="1"/>
  </g>

  <!-- XCD 4 -->
  <rect x="408" y="32" width="92" height="80" rx="4" fill="#1a1a3e" stroke="#5050a0" stroke-width="1"/>
  <text x="454" y="47" fill="#8888cc" font-family="monospace" font-size="8" text-anchor="middle" font-weight="bold">XCD 4</text>
  <text x="454" y="61" fill="#aaaadd" font-family="monospace" font-size="7" text-anchor="middle">38 CUs</text>
  <g fill="#4444aa" opacity="0.8">
    <rect x="414" y="66" width="7" height="7" rx="1"/><rect x="423" y="66" width="7" height="7" rx="1"/><rect x="432" y="66" width="7" height="7" rx="1"/><rect x="441" y="66" width="7" height="7" rx="1"/><rect x="450" y="66" width="7" height="7" rx="1"/>
    <rect x="414" y="75" width="7" height="7" rx="1"/><rect x="423" y="75" width="7" height="7" rx="1"/><rect x="432" y="75" width="7" height="7" rx="1"/><rect x="441" y="75" width="7" height="7" rx="1"/><rect x="450" y="75" width="7" height="7" rx="1"/>
    <rect x="414" y="84" width="7" height="7" rx="1"/><rect x="423" y="84" width="7" height="7" rx="1"/><rect x="432" y="84" width="7" height="7" rx="1"/><rect x="441" y="84" width="7" height="7" rx="1"/><rect x="450" y="84" width="7" height="7" rx="1"/>
    <rect x="414" y="93" width="7" height="7" rx="1"/><rect x="423" y="93" width="7" height="7" rx="1"/><rect x="432" y="93" width="7" height="7" rx="1"/><rect x="441" y="93" width="7" height="7" rx="1"/><rect x="450" y="93" width="7" height="7" rx="1"/>
    <rect x="459" y="66" width="7" height="7" rx="1"/><rect x="468" y="66" width="7" height="7" rx="1"/><rect x="459" y="75" width="7" height="7" rx="1"/><rect x="468" y="75" width="7" height="7" rx="1"/>
    <rect x="459" y="84" width="7" height="7" rx="1"/><rect x="468" y="84" width="7" height="7" rx="1"/><rect x="459" y="93" width="7" height="7" rx="1"/>
    <rect x="477" y="66" width="7" height="7" rx="1"/><rect x="486" y="66" width="7" height="7" rx="1"/>
    <rect x="477" y="75" width="7" height="7" rx="1"/>
  </g>

  <!-- XCD 5 -->
  <rect x="506" y="32" width="92" height="80" rx="4" fill="#1a1a3e" stroke="#5050a0" stroke-width="1"/>
  <text x="552" y="47" fill="#8888cc" font-family="monospace" font-size="8" text-anchor="middle" font-weight="bold">XCD 5</text>
  <text x="552" y="61" fill="#aaaadd" font-family="monospace" font-size="7" text-anchor="middle">38 CUs</text>
  <g fill="#4444aa" opacity="0.8">
    <rect x="512" y="66" width="7" height="7" rx="1"/><rect x="521" y="66" width="7" height="7" rx="1"/><rect x="530" y="66" width="7" height="7" rx="1"/><rect x="539" y="66" width="7" height="7" rx="1"/><rect x="548" y="66" width="7" height="7" rx="1"/>
    <rect x="512" y="75" width="7" height="7" rx="1"/><rect x="521" y="75" width="7" height="7" rx="1"/><rect x="530" y="75" width="7" height="7" rx="1"/><rect x="539" y="75" width="7" height="7" rx="1"/><rect x="548" y="75" width="7" height="7" rx="1"/>
    <rect x="512" y="84" width="7" height="7" rx="1"/><rect x="521" y="84" width="7" height="7" rx="1"/><rect x="530" y="84" width="7" height="7" rx="1"/><rect x="539" y="84" width="7" height="7" rx="1"/><rect x="548" y="84" width="7" height="7" rx="1"/>
    <rect x="512" y="93" width="7" height="7" rx="1"/><rect x="521" y="93" width="7" height="7" rx="1"/><rect x="530" y="93" width="7" height="7" rx="1"/><rect x="539" y="93" width="7" height="7" rx="1"/><rect x="548" y="93" width="7" height="7" rx="1"/>
    <rect x="557" y="66" width="7" height="7" rx="1"/><rect x="566" y="66" width="7" height="7" rx="1"/><rect x="557" y="75" width="7" height="7" rx="1"/><rect x="566" y="75" width="7" height="7" rx="1"/>
    <rect x="557" y="84" width="7" height="7" rx="1"/><rect x="566" y="84" width="7" height="7" rx="1"/><rect x="557" y="93" width="7" height="7" rx="1"/>
    <rect x="575" y="66" width="7" height="7" rx="1"/><rect x="584" y="66" width="7" height="7" rx="1"/>
    <rect x="575" y="75" width="7" height="7" rx="1"/>
  </g>

  <!-- XCD 6 -->
  <rect x="604" y="32" width="92" height="80" rx="4" fill="#1a1a3e" stroke="#5050a0" stroke-width="1"/>
  <text x="650" y="47" fill="#8888cc" font-family="monospace" font-size="8" text-anchor="middle" font-weight="bold">XCD 6</text>
  <text x="650" y="61" fill="#aaaadd" font-family="monospace" font-size="7" text-anchor="middle">38 CUs</text>
  <g fill="#4444aa" opacity="0.8">
    <rect x="610" y="66" width="7" height="7" rx="1"/><rect x="619" y="66" width="7" height="7" rx="1"/><rect x="628" y="66" width="7" height="7" rx="1"/><rect x="637" y="66" width="7" height="7" rx="1"/><rect x="646" y="66" width="7" height="7" rx="1"/>
    <rect x="610" y="75" width="7" height="7" rx="1"/><rect x="619" y="75" width="7" height="7" rx="1"/><rect x="628" y="75" width="7" height="7" rx="1"/><rect x="637" y="75" width="7" height="7" rx="1"/><rect x="646" y="75" width="7" height="7" rx="1"/>
    <rect x="610" y="84" width="7" height="7" rx="1"/><rect x="619" y="84" width="7" height="7" rx="1"/><rect x="628" y="84" width="7" height="7" rx="1"/><rect x="637" y="84" width="7" height="7" rx="1"/><rect x="646" y="84" width="7" height="7" rx="1"/>
    <rect x="610" y="93" width="7" height="7" rx="1"/><rect x="619" y="93" width="7" height="7" rx="1"/><rect x="628" y="93" width="7" height="7" rx="1"/><rect x="637" y="93" width="7" height="7" rx="1"/><rect x="646" y="93" width="7" height="7" rx="1"/>
    <rect x="655" y="66" width="7" height="7" rx="1"/><rect x="664" y="66" width="7" height="7" rx="1"/><rect x="655" y="75" width="7" height="7" rx="1"/><rect x="664" y="75" width="7" height="7" rx="1"/>
    <rect x="655" y="84" width="7" height="7" rx="1"/><rect x="664" y="84" width="7" height="7" rx="1"/><rect x="655" y="93" width="7" height="7" rx="1"/>
    <rect x="673" y="66" width="7" height="7" rx="1"/><rect x="682" y="66" width="7" height="7" rx="1"/>
    <rect x="673" y="75" width="7" height="7" rx="1"/>
  </g>

  <!-- XCD 7 -->
  <rect x="702" y="32" width="88" height="80" rx="4" fill="#1a1a3e" stroke="#5050a0" stroke-width="1"/>
  <text x="746" y="47" fill="#8888cc" font-family="monospace" font-size="8" text-anchor="middle" font-weight="bold">XCD 7</text>
  <text x="746" y="61" fill="#aaaadd" font-family="monospace" font-size="7" text-anchor="middle">38 CUs</text>
  <g fill="#4444aa" opacity="0.8">
    <rect x="708" y="66" width="7" height="7" rx="1"/><rect x="717" y="66" width="7" height="7" rx="1"/><rect x="726" y="66" width="7" height="7" rx="1"/><rect x="735" y="66" width="7" height="7" rx="1"/><rect x="744" y="66" width="7" height="7" rx="1"/>
    <rect x="708" y="75" width="7" height="7" rx="1"/><rect x="717" y="75" width="7" height="7" rx="1"/><rect x="726" y="75" width="7" height="7" rx="1"/><rect x="735" y="75" width="7" height="7" rx="1"/><rect x="744" y="75" width="7" height="7" rx="1"/>
    <rect x="708" y="84" width="7" height="7" rx="1"/><rect x="717" y="84" width="7" height="7" rx="1"/><rect x="726" y="84" width="7" height="7" rx="1"/><rect x="735" y="84" width="7" height="7" rx="1"/><rect x="744" y="84" width="7" height="7" rx="1"/>
    <rect x="708" y="93" width="7" height="7" rx="1"/><rect x="717" y="93" width="7" height="7" rx="1"/><rect x="726" y="93" width="7" height="7" rx="1"/><rect x="735" y="93" width="7" height="7" rx="1"/><rect x="744" y="93" width="7" height="7" rx="1"/>
    <rect x="753" y="66" width="7" height="7" rx="1"/><rect x="762" y="66" width="7" height="7" rx="1"/><rect x="753" y="75" width="7" height="7" rx="1"/><rect x="762" y="75" width="7" height="7" rx="1"/>
    <rect x="753" y="84" width="7" height="7" rx="1"/><rect x="762" y="84" width="7" height="7" rx="1"/>
    <rect x="771" y="66" width="7" height="7" rx="1"/><rect x="780" y="66" width="7" height="7" rx="1"/>
    <rect x="771" y="75" width="7" height="7" rx="1"/>
  </g>

  <!-- Persistent kernel label -->
  <rect x="8" y="120" width="784" height="30" rx="3" fill="#0d1a0d" stroke="#2a5a2a" stroke-width="1"/>
  <text x="400" y="139" fill="#44dd44" font-family="monospace" font-size="10" text-anchor="middle" font-weight="bold">Persistent kernel: workgroups stay resident on CUs — no re-launch overhead between shots</text>

  <!-- ═══════════════════════════════════════════════ MIDDLE — PHASES ══ -->
  <rect x="8" y="178" width="784" height="122" rx="6" fill="#1e1218" stroke="#5a3040" stroke-width="1"/>

  <!-- 6 phase boxes -->
  <!-- Phase 1: Frame -->
  <rect x="16" y="186" width="118" height="106" rx="4" fill="#2a1a00" stroke="#ff8c00" stroke-width="1.5"/>
  <rect x="16" y="186" width="118" height="20" rx="4" fill="#ff8c00" fill-opacity="0.25"/>
  <text x="75" y="200" fill="#ffa500" font-family="monospace" font-size="9" text-anchor="middle" font-weight="bold">1. Frame Phase</text>
  <text x="75" y="218" fill="#ddaa66" font-family="monospace" font-size="8" text-anchor="middle">Clifford gates</text>
  <text x="75" y="232" fill="#aa8844" font-family="monospace" font-size="7" text-anchor="middle">H, CNOT, S, T</text>
  <text x="75" y="246" fill="#aa8844" font-family="monospace" font-size="7" text-anchor="middle">stabilizer updates</text>
  <text x="75" y="260" fill="#aa8844" font-family="monospace" font-size="7" text-anchor="middle">frame propagation</text>
  <text x="75" y="281" fill="#ff8c00" font-family="monospace" font-size="8" text-anchor="middle" font-weight="bold">dispatch</text>

  <!-- Phase 2: Expand -->
  <rect x="142" y="186" width="118" height="106" rx="4" fill="#2a1a00" stroke="#ff8c00" stroke-width="1.5"/>
  <rect x="142" y="186" width="118" height="20" rx="4" fill="#ff8c00" fill-opacity="0.25"/>
  <text x="201" y="200" fill="#ffa500" font-family="monospace" font-size="9" text-anchor="middle" font-weight="bold">2. Expand Phase</text>
  <text x="201" y="218" fill="#ddaa66" font-family="monospace" font-size="8" text-anchor="middle">Qubit activation</text>
  <text x="201" y="232" fill="#aa8844" font-family="monospace" font-size="7" text-anchor="middle">state vector grow</text>
  <text x="201" y="246" fill="#aa8844" font-family="monospace" font-size="7" text-anchor="middle">ancilla init</text>
  <text x="201" y="260" fill="#aa8844" font-family="monospace" font-size="7" text-anchor="middle">memory alloc</text>
  <text x="201" y="281" fill="#ff8c00" font-family="monospace" font-size="8" text-anchor="middle" font-weight="bold">dispatch</text>

  <!-- Phase 3: Array -->
  <rect x="268" y="186" width="118" height="106" rx="4" fill="#2a1a00" stroke="#ff8c00" stroke-width="1.5"/>
  <rect x="268" y="186" width="118" height="20" rx="4" fill="#ff8c00" fill-opacity="0.25"/>
  <text x="327" y="200" fill="#ffa500" font-family="monospace" font-size="9" text-anchor="middle" font-weight="bold">3. Array Phase</text>
  <text x="327" y="218" fill="#ddaa66" font-family="monospace" font-size="8" text-anchor="middle">Unitary sweeps</text>
  <text x="327" y="232" fill="#aa8844" font-family="monospace" font-size="7" text-anchor="middle">amplitude iteration</text>
  <text x="327" y="246" fill="#aa8844" font-family="monospace" font-size="7" text-anchor="middle">matrix-vector ops</text>
  <text x="327" y="260" fill="#aa8844" font-family="monospace" font-size="7" text-anchor="middle">MFMA acceleration</text>
  <text x="327" y="281" fill="#ff8c00" font-family="monospace" font-size="8" text-anchor="middle" font-weight="bold">dispatch</text>

  <!-- Phase 4: Measure -->
  <rect x="394" y="186" width="118" height="106" rx="4" fill="#2a1a00" stroke="#ff8c00" stroke-width="1.5"/>
  <rect x="394" y="186" width="118" height="20" rx="4" fill="#ff8c00" fill-opacity="0.25"/>
  <text x="453" y="200" fill="#ffa500" font-family="monospace" font-size="9" text-anchor="middle" font-weight="bold">4. Measure Phase</text>
  <text x="453" y="218" fill="#ddaa66" font-family="monospace" font-size="8" text-anchor="middle">Born-rule + collapse</text>
  <text x="453" y="232" fill="#aa8844" font-family="monospace" font-size="7" text-anchor="middle">prob. sampling</text>
  <text x="453" y="246" fill="#aa8844" font-family="monospace" font-size="7" text-anchor="middle">wavefunction collapse</text>
  <text x="453" y="260" fill="#aa8844" font-family="monospace" font-size="7" text-anchor="middle">state reset</text>
  <text x="453" y="281" fill="#ff8c00" font-family="monospace" font-size="8" text-anchor="middle" font-weight="bold">dispatch</text>

  <!-- Phase 5: Noise -->
  <rect x="520" y="186" width="118" height="106" rx="4" fill="#2a1a00" stroke="#ff8c00" stroke-width="1.5"/>
  <rect x="520" y="186" width="118" height="20" rx="4" fill="#ff8c00" fill-opacity="0.25"/>
  <text x="579" y="200" fill="#ffa500" font-family="monospace" font-size="9" text-anchor="middle" font-weight="bold">5. Noise Phase</text>
  <text x="579" y="218" fill="#ddaa66" font-family="monospace" font-size="8" text-anchor="middle">Error channels</text>
  <text x="579" y="232" fill="#aa8844" font-family="monospace" font-size="7" text-anchor="middle">depolarizing noise</text>
  <text x="579" y="246" fill="#aa8844" font-family="monospace" font-size="7" text-anchor="middle">Kraus operators</text>
  <text x="579" y="260" fill="#aa8844" font-family="monospace" font-size="7" text-anchor="middle">T1/T2 decay</text>
  <text x="579" y="281" fill="#ff8c00" font-family="monospace" font-size="8" text-anchor="middle" font-weight="bold">dispatch</text>

  <!-- Phase 6: Detector -->
  <rect x="646" y="186" width="138" height="106" rx="4" fill="#2a1a00" stroke="#ff8c00" stroke-width="1.5"/>
  <rect x="646" y="186" width="138" height="20" rx="4" fill="#ff8c00" fill-opacity="0.25"/>
  <text x="715" y="200" fill="#ffa500" font-family="monospace" font-size="9" text-anchor="middle" font-weight="bold">6. Detector/Obs Phase</text>
  <text x="715" y="218" fill="#ddaa66" font-family="monospace" font-size="8" text-anchor="middle">Born-rule observables</text>
  <text x="715" y="232" fill="#aa8844" font-family="monospace" font-size="7" text-anchor="middle">detector events</text>
  <text x="715" y="246" fill="#aa8844" font-family="monospace" font-size="7" text-anchor="middle">logical observable</text>
  <text x="715" y="260" fill="#aa8844" font-family="monospace" font-size="7" text-anchor="middle">syndrome extraction</text>
  <text x="715" y="281" fill="#ff8c00" font-family="monospace" font-size="8" text-anchor="middle" font-weight="bold">dispatch</text>

  <!-- Arrows between phases -->
  <g stroke="#ff8c00" stroke-width="1" fill="#ff8c00" opacity="0.6">
    <line x1="134" y1="239" x2="142" y2="239"/>
    <polygon points="140,236 144,239 140,242"/>
    <line x1="260" y1="239" x2="268" y2="239"/>
    <polygon points="266,236 270,239 266,242"/>
    <line x1="386" y1="239" x2="394" y2="239"/>
    <polygon points="392,236 396,239 392,242"/>
    <line x1="512" y1="239" x2="520" y2="239"/>
    <polygon points="518,236 522,239 518,242"/>
    <line x1="638" y1="239" x2="646" y2="239"/>
    <polygon points="644,236 648,239 644,242"/>
  </g>

  <!-- ═══════════════════════════════════════════════ BOTTOM — WORK-STEALING ══ -->
  <rect x="8" y="316" width="784" height="94" rx="6" fill="#120818" stroke="#5a2070" stroke-width="1"/>

  <!-- Atomic counter box -->
  <rect x="16" y="326" width="148" height="76" rx="4" fill="#1e0a2e" stroke="#a855f7" stroke-width="2"/>
  <text x="90" y="342" fill="#c084fc" font-family="monospace" font-size="9" text-anchor="middle" font-weight="bold">Atomic Counter</text>
  <text x="90" y="358" fill="#9333ea" font-family="monospace" font-size="9" text-anchor="middle">work_counter</text>
  <rect x="52" y="364" width="76" height="20" rx="3" fill="#2d0050" stroke="#7c3aed" stroke-width="1"/>
  <text x="90" y="378" fill="#e879f9" font-family="monospace" font-size="9" text-anchor="middle" font-weight="bold">atomicAdd()</text>
  <text x="90" y="396" fill="#7e22ce" font-family="monospace" font-size="7" text-anchor="middle">global shot counter</text>

  <!-- Work-stealing flow arrows -->
  <g stroke="#a855f7" stroke-width="1.5" fill="none" opacity="0.8">
    <!-- block finishes shot -> atomicAdd -->
    <line x1="164" y1="358" x2="215" y2="358"/>
    <polygon points="213,354 219,358 213,362" fill="#a855f7" stroke="none"/>
  </g>

  <!-- Flow description box -->
  <rect x="220" y="326" width="270" height="76" rx="4" fill="#0e0a1e" stroke="#7c3aed" stroke-width="1.5"/>
  <text x="355" y="343" fill="#c084fc" font-family="monospace" font-size="9" text-anchor="middle" font-weight="bold">Work-Stealing Flow</text>
  <text x="230" y="359" fill="#a78bfa" font-family="monospace" font-size="8">1. Block completes a shot</text>
  <text x="230" y="373" fill="#a78bfa" font-family="monospace" font-size="8">2. atomicAdd(work_counter) → next shot ID</text>
  <text x="230" y="387" fill="#a78bfa" font-family="monospace" font-size="8">3. Block claims next available shot</text>
  <text x="230" y="399" fill="#7c3aed" font-family="monospace" font-size="7">No barrier needed — lock-free assignment</text>

  <!-- Performance delta boxes -->
  <rect x="500" y="326" width="135" height="76" rx="4" fill="#1a0808" stroke="#dc2626" stroke-width="2"/>
  <text x="567" y="343" fill="#f87171" font-family="monospace" font-size="9" text-anchor="middle" font-weight="bold">Coop regression</text>
  <text x="567" y="361" fill="#dc2626" font-family="monospace" font-size="20" text-anchor="middle" font-weight="bold">-3%</text>
  <text x="567" y="382" fill="#f87171" font-family="monospace" font-size="7.5" text-anchor="middle">phase list overhead</text>
  <text x="567" y="396" fill="#7f1d1d" font-family="monospace" font-size="7" text-anchor="middle">(vs 35-case switch)</text>

  <rect x="645" y="326" width="139" height="76" rx="4" fill="#0a1a0a" stroke="#16a34a" stroke-width="2"/>
  <text x="715" y="343" fill="#86efac" font-family="monospace" font-size="9" text-anchor="middle" font-weight="bold">Thread gain</text>
  <text x="715" y="361" fill="#16a34a" font-family="monospace" font-size="20" text-anchor="middle" font-weight="bold">+7%</text>
  <text x="715" y="382" fill="#86efac" font-family="monospace" font-size="7.5" text-anchor="middle">work-stealing load bal.</text>
  <text x="715" y="396" fill="#166534" font-family="monospace" font-size="7" text-anchor="middle">(thread throughput)</text>

  <!-- Net arrow between them -->
  <g stroke="#888888" stroke-width="1" opacity="0.5">
    <line x1="635" y1="364" x2="645" y2="364"/>
    <polygon points="643,360 649,364 643,368" fill="#888888" stroke="none"/>
  </g>

  <!-- ── BOTTOM LABEL ── -->
  <rect x="8" y="418" width="784" height="26" rx="3" fill="#0a0a18" stroke="#333366" stroke-width="1"/>
  <text x="400" y="435" fill="#9090cc" font-family="monospace" font-size="9.5" text-anchor="middle" font-style="italic">Phase-sorted dispatch trades switch prediction for phase traversal overhead</text>

  <!-- Title -->
  <text x="400" y="12" fill="#6060aa" font-family="monospace" font-size="9" text-anchor="middle">Approach E — Persistent Kernel with Phase-Sorted Dispatch</text>
</svg>